<?xml version="1.0" encoding="utf-8"?>
<!-- Generator: Adobe Illustrator 22.0.1, SVG Export Plug-In . SVG Version: 6.00 Build 0)  -->
<svg version="1.1" id="Layer_1" xmlns="http://www.w3.org/2000/svg" xmlns:xlink="http://www.w3.org/1999/xlink" x="0px" y="0px"
	 viewBox="0 0 64 64" style="enable-background:new 0 0 64 64;" xml:space="preserve">
<style type="text/css">
	.st0{fill:#1D1D1B;}
</style>
<title>Diamond</title>
<path class="st0" d="M31.5,53.6c-0.3,0-0.5-0.1-0.7-0.3L0.3,22.8c-0.4-0.4-0.4-0.9-0.1-1.3l8.5-10.7c0.2-0.2,0.5-0.4,0.8-0.4h44
	c0.3,0,0.5,0.1,0.7,0.3l9.5,9.6c0.4,0.4,0.4,1,0,1.4L32.2,53.3C32,53.5,31.8,53.6,31.5,53.6C31.5,53.6,31.5,53.6,31.5,53.6z
	 M17.9,25.4l13.6,25l13.6-25H17.9z M47.3,25.4L35.6,47.1l21.6-21.7H47.3z M5.7,25.4L27.3,47L15.6,25.4H5.7z M47.3,23.4h11.9l2.4-2.4
	l-8.5-8.6H39.7L47.3,23.4z M18.1,23.4h26.8l-7.6-11H25.7L18.1,23.4z M3.7,23.4h11.9l7.6-11H10L2.4,22L3.7,23.4z"/>
</svg>
