<?xml version="1.0" encoding="utf-8"?>
<!-- Generator: Adobe Illustrator 22.0.1, SVG Export Plug-In . SVG Version: 6.00 Build 0)  -->
<svg version="1.1" id="Layer_1" xmlns="http://www.w3.org/2000/svg" xmlns:xlink="http://www.w3.org/1999/xlink" x="0px" y="0px"
	 viewBox="0 0 64 64" style="enable-background:new 0 0 64 64;" xml:space="preserve">
<title>sho-box-sealed-up</title>
<desc>Created with Sketch.</desc>
<g id="_x36_4px-Glyph">
	<g id="sho-box-sealed-up">
		<path id="Fill-32" d="M27.9,54.3c-0.2,0.3-0.5,0.5-0.9,0.5c-0.2,0-0.3,0-0.5-0.1L8.5,45c-0.5-0.3-0.7-0.9-0.4-1.4
			C8.4,43.2,9,43,9.5,43.3l18,9.7C28,53.2,28.1,53.8,27.9,54.3L27.9,54.3z M9.4,34.2l3-2c0,0,0.1,0,0.1,0c0.1,0,0.1-0.1,0.2-0.1
			c0.1,0,0.1,0,0.2,0c0,0,0.1,0,0.1,0c0,0,0.1,0,0.1,0c0.1,0,0.1,0,0.2,0c0.1,0,0.1,0,0.2,0.1c0.1,0,0.1,0.1,0.2,0.1
			c0.1,0,0.1,0.1,0.1,0.1c0,0,0,0,0.1,0l3,4c0.3,0.4,0.2,1.1-0.2,1.4C16.4,37.9,16.2,38,16,38c-0.3,0-0.6-0.1-0.8-0.4L14,36v7
			c0,0.6-0.4,1-1,1c-0.6,0-1-0.4-1-1v-8.1l-1.4,1c-0.5,0.3-1.1,0.2-1.4-0.3C8.9,35.1,9,34.5,9.4,34.2L9.4,34.2z M19.4,39.2l3-2
			c0,0,0.1,0,0.1,0c0.1,0,0.1-0.1,0.2-0.1c0.1,0,0.1,0,0.2,0c0,0,0.1,0,0.1,0c0,0,0.1,0,0.1,0c0.1,0,0.1,0,0.2,0
			c0.1,0,0.1,0,0.2,0.1c0.1,0,0.1,0.1,0.2,0.1c0,0,0.1,0.1,0.1,0.1c0,0,0,0,0.1,0l3,4c0.3,0.4,0.2,1.1-0.2,1.4
			C26.4,42.9,26.2,43,26,43c-0.3,0-0.6-0.1-0.8-0.4L24,41v7c0,0.6-0.4,1-1,1c-0.6,0-1-0.4-1-1v-8.1l-1.4,1c-0.5,0.3-1.1,0.2-1.4-0.3
			C18.9,40.1,19,39.5,19.4,39.2L19.4,39.2z M4,17.6V47c0,0.4,0.2,0.7,0.5,0.9L30,62V31.6L4,17.6z"/>
		<polygon id="Fill-34" points="46,24.1 44,25.2 44,35.4 46,34.4 		"/>
		<path id="Fill-36" d="M48,23v12c0,0.4-0.2,0.7-0.6,0.9l-4,2C43.3,38,43.2,38,43,38c-0.2,0-0.4-0.1-0.5-0.2
			C42.2,37.7,42,37.3,42,37V26.2l-10,5.4V62l25.5-14.1c0.3-0.2,0.5-0.5,0.5-0.9V17.7L48,23z"/>
		<path id="Fill-38" d="M47,21.3l10-5.4L31.5,2.1c-0.3-0.2-0.7-0.2-0.9,0L21,7.3L47,21.3z"/>
		<polygon id="Fill-40" points="14.9,10.5 5,15.9 31,29.9 40.9,24.6 		"/>
		<polygon id="Fill-42" points="17,9.4 43,23.4 44.9,22.4 18.9,8.4 		"/>
	</g>
</g>
</svg>
