<?xml version="1.0" encoding="utf-8"?>
<!-- Generator: Adobe Illustrator 22.0.1, SVG Export Plug-In . SVG Version: 6.00 Build 0)  -->
<svg version="1.1" id="Layer_1" xmlns="http://www.w3.org/2000/svg" xmlns:xlink="http://www.w3.org/1999/xlink" x="0px" y="0px"
	 viewBox="0 0 64 64" style="enable-background:new 0 0 64 64;" xml:space="preserve">
<title>spo-medal</title>
<desc>Created with Sketch.</desc>
<g id="_x36_4px-Glyph">
	<g id="spo-medal">
		<path id="Fill-82" d="M50,13c0-1.7-1.3-3-3-3H15c-1.7,0-3,1.3-3,3c0,1.2,0.3,1.4,0.4,1.6l5.5,5.4h26.1l5.6-5.4
			C49.7,14.4,50,14.2,50,13"/>
		<path id="Fill-83" d="M32.3,44L31,41.4L29.7,44c-0.1,0.3-0.4,0.5-0.8,0.6L26.1,45l2.1,2.2c0.2,0.2,0.3,0.5,0.3,0.9l-0.5,3l2.5-1.4
			c0.2-0.1,0.3-0.1,0.5-0.1c0.2,0,0.3,0,0.5,0.1l2.5,1.4l-0.5-3c-0.1-0.3,0.1-0.6,0.3-0.9l2.1-2.2L33,44.6
			C32.7,44.5,32.4,44.3,32.3,44"/>
		<path id="Fill-84" d="M38.7,45l-3.1,3.2l0.7,4.6c0.1,0.4-0.1,0.8-0.4,1c-0.2,0.1-0.4,0.2-0.6,0.2c-0.2,0-0.3,0-0.5-0.1L31,51.7
			l-3.8,2.1c-0.3,0.2-0.7,0.2-1.1-0.1c-0.3-0.2-0.5-0.6-0.4-1l0.7-4.6L23.3,45c-0.3-0.3-0.4-0.7-0.2-1c0.1-0.4,0.4-0.6,0.8-0.7
			l4.3-0.7l1.9-4.1c0.2-0.4,0.5-0.6,0.9-0.6s0.7,0.2,0.9,0.6l1.9,4.1l4.3,0.7c0.4,0.1,0.7,0.3,0.8,0.7C39.1,44.4,39,44.8,38.7,45
			 M31,34c-7.2,0-13,5.8-13,13c0,7.2,5.8,13,13,13c7.2,0,13-5.8,13-13C44,39.8,38.2,34,31,34"/>
		<path id="Fill-85" d="M47,6H15c-3.9,0-7,3.1-7,7v12c0,1.2,0.2,3,1.6,4.4l9.2,9c2.1-3,5.3-5.2,9-6L11,16c-0.7-0.7-1-1.6-1-3
			c0-2.8,2.2-5,5-5h32c2.8,0,5,2.2,5,5c0,1.4-0.3,2.3-1,3L34.3,32.4c3.7,0.8,6.9,3,9,6l9.2-9C53.8,28,54,26.2,54,25V13
			C54,9.1,50.9,6,47,6"/>
	</g>
</g>
</svg>
